<svg width="390" height="635" viewBox="0 0 390 635" fill="none" xmlns="http://www.w3.org/2000/svg">
<g clip-path="url(#clip0_2031_377)">
<rect width="390" height="635" fill="#FCFAFF"/>
<circle opacity="0.4" cx="244" cy="166" r="132" fill="#F4EFFF"/>
<path d="M281.518 50.3955C280.696 49.0248 279.627 46.4478 281.928 47.1055C284.228 47.7634 283.16 49.5731 282.339 50.3955C283.571 50.1214 286.776 49.8198 289.733 50.8066C293.431 52.0403 292.198 51.218 296.307 49.9844C299.593 48.9976 302.331 50.6694 303.29 51.6289C301.318 51.6291 300.004 53.5484 299.593 54.5078C301.236 54.8368 303.016 57.3854 303.701 58.6191C303.153 58.3449 301.318 57.7147 298.36 57.3857C294.663 56.9747 292.609 60.2638 290.145 59.0303C288.173 58.0434 284.119 58.8941 282.339 59.4424V66.8438C287.269 79.0156 298.909 97.9591 304.112 105.909C303.783 107.225 301.236 107.828 300.004 107.965V133.871H300.825V139.217L302.88 140.039V135.104L306.166 134.693L310.685 135.516V149.908L306.577 154.021L306.987 192.264H308.631V196.787H310.685V193.497L312.739 192.675H317.258V204.188L313.972 208.301V218.581H317.669V223.516H319.723V218.581H322.188L323.01 182.806L318.901 181.16C321.202 180.502 329.719 162.519 333.69 153.609V141.273C333.143 140.177 332.541 138.148 334.513 138.806C336.484 139.464 335.608 140.725 334.923 141.273C336.018 142.233 338.784 143.74 341.085 142.096C343.386 140.451 345.331 141.684 346.016 142.507C344.701 142.178 343.551 143.466 343.14 144.151C344.783 144.809 345.468 146.071 345.604 146.619C344.372 146.345 341.578 146.043 340.264 147.03C338.949 148.017 336.43 147.441 335.334 147.03V153.609C336.32 157.228 345.604 173.758 350.123 181.571L346.016 182.806V208.301H347.658V212.824H350.123V208.301H355.053V212.824H357.107V208.301H363.681V218.17L360.805 222.281V239.553L366.146 243.254L370.253 277.795L375.184 281.085L383.399 254.356L392.849 286.431L388.74 285.197L395.313 306.58C402.873 309.541 420.921 324.537 429 331.664V388H390V794H-4V273.272C5.17484 266.008 24.5926 251.067 28.8652 249.422C33.1377 247.777 47.3517 264.637 53.9248 273.272L62.9629 274.917C77.4235 291.365 96.6494 305.621 104.455 310.692C115.136 302.468 136.991 285.938 138.964 285.608C140.936 285.279 152.109 293.695 157.45 297.944L161.148 283.553L164.435 281.496L168.132 265.048L174.294 260.113L176.759 205.011C175.116 205.011 173.335 203.64 172.65 202.955C173.965 201.31 182.784 184.725 187.029 176.638V166.357C186.619 165.261 186.208 163.232 187.851 163.89C189.494 164.548 188.535 165.809 187.851 166.357C188.809 166.906 190.892 167.838 191.549 167.18C192.206 166.522 194.561 166.906 195.656 167.18C194.67 167.18 193.876 168.002 193.603 168.413C194.26 168.742 194.972 169.646 195.246 170.058C192.781 169.235 192.781 171.702 190.727 170.88C189.084 170.222 188.124 170.606 187.851 170.88V176.638C189.494 180.257 198.396 195.69 202.641 202.955C202.312 203.942 200.039 204.737 198.943 205.011V209.534H203.462V214.058H205.517V209.534H210.446L211.268 161.423C208.967 161.423 207.57 160.052 207.159 159.366C209.788 156.405 218.937 138.943 223.182 130.582V115.778C222.497 114.819 221.62 112.9 223.592 112.899C225.564 112.899 224.962 114.819 224.414 115.778C225.373 116.464 228.194 117.423 231.809 115.778C235.424 114.134 238.519 115.915 239.614 117.012C238.3 116.683 236.602 117.971 235.917 118.656C237.232 118.657 238.93 121.124 239.614 122.357C239.34 122.083 238.135 121.535 235.506 121.535C232.219 121.535 230.986 124.824 228.521 123.591C226.55 122.604 224.962 122.906 224.414 123.18V130.582C229.015 141.109 236.738 154.157 240.024 159.366C239.696 160.353 237.15 161.149 235.917 161.423L236.327 178.282H240.024V182.806H242.079V178.282H249.062V182.806H251.117V178.282H256.047L256.868 153.609L252.35 148.675V133.871H258.512L260.565 135.104V139.217H263.03V133.871H263.852V107.965C261.552 107.636 260.155 106.183 259.744 105.498C262.702 105.168 275.492 79.591 281.518 66.8438V50.3955Z" fill="#F4EFFF"/>
<path d="M120 43H-4C-4 36.6324 6.53079 34.5099 11.7962 34.2446C11.0064 31.8567 11.1643 26.2851 18.1147 23.1013C25.065 19.9174 31.5414 21.7747 33.9108 23.1013C33.3843 15.1418 37.386 -0.618032 57.6051 0.0187275C77.8242 0.655487 83.4055 15.6724 83.6688 23.1013C83.9321 21.7747 86.5121 19.2807 94.7261 19.9175C102.94 20.5542 105.52 29.7342 105.783 34.2446C116.525 32.3343 119.737 39.2856 120 43Z" fill="white"/>
<path d="M187.029 166.357C186.619 165.261 186.208 163.232 187.851 163.89C189.494 164.548 188.535 165.809 187.851 166.357C188.809 166.906 190.891 167.838 191.549 167.18C192.206 166.522 194.561 166.906 195.656 167.18C194.67 167.18 193.876 168.002 193.603 168.413C194.26 168.742 194.972 169.646 195.246 170.058C192.781 169.235 192.781 171.702 190.727 170.88C189.084 170.222 188.124 170.606 187.851 170.88V176.638C189.494 180.257 198.396 195.69 202.641 202.955C202.312 203.942 200.039 204.737 198.943 205.011V208.022L198.615 209.51H198.943V209.534H203.363V213.845H203.462V214.058H205.517V213.845H205.953V209.534H210.446V209.51H214.154V213.845H217.175V209.51H224.944V220.779H222.354V226.847H218.901V222.513L216.312 221.212H208.111V274.521L205.521 280.589H211.564L214.586 287.957L215.018 280.589L221.06 270.621L223.649 283.189H231.419C231.275 277.988 231.074 265.593 231.419 257.618C231.764 249.644 238.18 247.072 241.346 246.783C249.633 246.783 252.568 254.006 253 257.618V284.49H224.944L206.385 295.759C204.083 303.56 198.788 320.03 196.025 323.497C192.573 327.831 195.593 328.264 194.299 330.864C193.263 332.945 165.668 339.822 152 343L161.064 336.065L165.812 320.896L175.308 313.528L180.056 293.158L188.257 287.09L185.667 290.124L178.761 317.862L182.214 325.23L193.004 314.828L200.773 285.356L208.111 282.756L202.932 281.456L205.521 275.389L202.068 274.521L194.299 279.723L193.004 204.31C187.479 203.269 178.904 203.876 175.308 204.31L175.089 204.616C174.035 204.158 173.103 203.408 172.65 202.955C173.965 201.31 182.784 184.725 187.029 176.638V166.357Z" fill="#F0EAFF"/>
<path d="M28.8652 249.422C33.1377 247.777 47.3517 264.637 53.9248 273.272L62.9629 274.917C77.4235 291.365 96.6495 305.621 104.455 310.692C115.136 302.468 136.991 285.938 138.964 285.608C140.936 285.279 152.109 293.695 157.45 297.944L157.474 297.852L158 298.5C153.5 309.667 142.6 332.6 135 335C133.333 340.333 129.4 351.4 127 353C124 355.001 101 394 72 401C47.7667 406.849 20.391 433.996 -4 441.887V273.272C5.17478 266.008 24.5924 251.067 28.8652 249.422Z" fill="#F0EAFF"/>
<path d="M281.517 50.3955C280.695 49.0248 279.627 46.4478 281.928 47.1055C284.228 47.7634 283.161 49.5731 282.339 50.3955C283.571 50.1214 286.776 49.8198 289.733 50.8066C293.431 52.0403 292.198 51.218 296.307 49.9844C299.593 48.9976 302.331 50.6694 303.29 51.6289C301.318 51.6291 300.004 53.5484 299.593 54.5078C301.236 54.8368 303.016 57.3854 303.701 58.6191C303.153 58.345 301.318 57.7147 298.36 57.3857C294.663 56.9747 292.609 60.2638 290.145 59.0303C288.173 58.0434 284.119 58.8941 282.339 59.4424V66.8438C287.269 79.0156 298.909 97.9591 304.112 105.909C303.783 107.225 301.236 107.828 300.004 107.965V133.871H300.825V139.217L302.88 140.039V135.104L306.166 134.693L310.685 135.516V149.908L306.577 154.021L306.987 192.264H308.631V196.787H310.685V193.497L312.739 192.675H317.028L317.258 194.832V204.188L313.972 208.301V212.408L313.541 212.674L315.162 272.663L323.676 281.581L327.324 297.794L315.162 320.088L327.324 333.464L331.784 318.467L327.324 320.088L335.433 286.444L344.757 320.088L340.703 318.467L350.027 348.461C352.946 349.434 358.54 351.839 360.973 352.92L364.216 344.408H360.973L368.676 321.709L375.973 344.408H372.729L378 359L347.189 348.461L330.973 346.029L321.648 337.923L307.054 342.786L303.405 324.952L289.622 315.224L279.081 314.008L289.622 309.144L291.243 292.119L295.297 296.578L299.757 310.765L305.433 297.794L315.162 286.851L302.189 272.663L305.433 274.69L304.216 212.674L305.433 208.215V196.865H299.757V200.919H297.324V196.865H292.459L291.648 158.358L294.486 153.089V138.902H292.459V113.366L294.892 110.528C291 106.96 283.811 84.4513 280.703 73.6426L279.76 70.5176C280.39 69.2091 280.981 67.9764 281.517 66.8438V50.3955Z" fill="#F0EAFF"/>
<path d="M389.5 89.0118H311C311 85.0117 317.667 83.6784 321 83.5118C320.5 82.0118 320.6 78.5118 325 76.5118C329.4 74.5117 333.5 75.6784 335 76.5118C334.667 71.5118 337.2 61.6118 350 62.0118C362.8 62.4118 366.333 71.8451 366.5 76.5118C366.667 75.6784 368.3 74.1118 373.5 74.5118C378.7 74.9118 380.333 80.6784 380.5 83.5118C387.3 82.3118 389.333 86.6784 389.5 89.0118Z" fill="white"/>
<path d="M161.5 242.012H83C83 238.012 89.6667 236.678 93 236.512C92.5 235.012 92.6 231.512 97 229.512C101.4 227.512 105.5 228.678 107 229.512C106.667 224.512 109.2 214.612 122 215.012C134.8 215.412 138.333 224.845 138.5 229.512C138.667 228.678 140.3 227.112 145.5 227.512C150.7 227.912 152.333 233.678 152.5 236.512C159.3 235.312 161.333 239.678 161.5 242.012Z" fill="white"/>
<path d="M279.5 127H273V118.5C273 116.5 274 113 276 113C278.433 113 279.333 116.833 279.5 118.5V127Z" fill="#F0EAFF"/>
<path d="M223.5 178H217V169.5C217 167.5 218 164 220 164C222.433 164 223.333 167.833 223.5 169.5V178Z" fill="#F0EAFF"/>
<path d="M279.5 173H273V164.5C273 162.5 274 159 276 159C278.433 159 279.333 162.833 279.5 164.5V173Z" fill="#F0EAFF"/>
<path d="M71.7638 102.394C74.9202 111.38 81.8466 117.745 84.9153 119.804C85.5165 117.558 88.6729 114.625 90.1759 113.439C89.5747 112.391 89.5496 110.382 89.6122 109.508C90.3638 110.556 92.5557 111.442 93.5577 111.754C94.1839 111.442 96.6764 110.856 101.636 111.006C106.596 111.155 109.465 114.438 110.279 116.06C111.181 116.659 113.285 116.06 114.224 115.686C114.224 117.034 112.721 118.868 111.97 119.617C112.721 120.665 112.909 122.8 112.909 123.736C115.164 123.548 120.424 119.617 123.806 117.558C127.188 115.499 149.733 110.444 148.982 113.814C148.38 116.509 142.719 119.305 139.964 120.366C143.12 120.216 144.41 121.177 144.66 121.676C144.36 124.372 137.772 126.044 134.515 126.544C135.392 126.544 137.183 126.993 137.333 128.79C137.484 130.587 131.258 131.536 128.127 131.785C131.734 134.182 126.123 135.155 122.867 135.342C123.167 137.289 120.111 137.152 118.545 136.84C118.996 139.835 114.349 139.211 111.97 138.525C112.571 140.622 109.214 140.397 107.461 140.022C106.108 142.868 102.012 141.208 100.133 140.022C95.1734 145.714 85.6668 146.512 81.5335 146.2C81.4709 146.699 81.0074 147.885 79.6547 148.634C78.302 149.383 77.4628 148.821 77.2123 148.447C74.2063 153.127 69.8851 155.748 68.0063 154.812C66.5033 154.063 67.38 152.877 68.0063 152.378C66.8164 152.815 64.0609 153.576 62.5578 153.127C61.0548 152.678 61.9316 151.567 62.5578 151.068C61.2427 151.38 58.3118 151.742 57.1094 150.693C55.907 149.645 57.6104 148.509 58.6124 148.072C57.2973 148.26 54.2536 148.447 52.6003 147.698C50.5337 146.762 51.0973 146.387 53.1639 145.639C55.2306 144.89 66.1275 138.712 67.6305 137.589C68.833 136.69 71.2628 132.597 72.3275 130.662C71.4507 130.475 69.1336 129.838 66.879 128.79C64.6245 127.742 65.9396 127.105 66.879 126.918C62.7457 126.918 60.8669 124.11 59.9275 122.987C59.176 122.088 60.9922 121.739 61.9942 121.676C57.8609 121.676 55.4185 118.681 53.9155 116.996C52.713 115.648 55.0427 115.311 56.3579 115.311C52.2246 114.188 48.8428 110.444 48.467 109.134C48.1664 108.085 50.471 107.823 51.6609 107.823C46.4003 106.887 44.1458 102.769 43.3943 101.084C42.7931 99.7358 46.1498 99.8981 47.9034 100.148C45.2731 99.7733 40.2004 94.7187 40.0125 92.2851C39.8622 90.3381 44.0832 91.4738 46.2125 92.2851C42.768 89.4146 36.2174 83.2992 37.5701 81.8016C38.9228 80.3039 44.1458 82.6752 46.5882 84.048C40.5761 79.1807 30.7313 69.783 39.4489 71.1308C50.3458 72.8157 67.8184 91.1618 71.7638 102.394Z" fill="#F0EAFF"/>
<path d="M96.7656 117.199C101.921 116.056 103.855 120.108 104.338 122.435C106.433 118.468 110.139 119.737 111.589 122.435C113.429 125.858 109.011 137.112 99.988 134.651C89.5151 131.796 90.3207 118.627 96.7656 117.199Z" fill="#FCFAFF"/>
<path d="M98.7086 123.812L98 123.509C98.4724 123.206 99.7007 122.721 100.834 123.206C102.252 123.812 101.827 127.148 99.8424 126.542C98.2551 126.056 98.4252 124.52 98.7086 123.812Z" fill="#F0EAFF"/>
<path d="M102.252 128.513C102.252 127.785 103.386 127.3 103.952 127.148C104.283 127.502 104.973 128.361 105.086 128.968C105.2 129.574 104 131.242 103.386 132C103.008 131.141 102.252 129.24 102.252 128.513Z" fill="#F0EAFF"/>
<path d="M106.503 128.058C105.511 127.148 106.078 125.539 106.787 125.329C109.338 124.57 109.055 126.542 108.913 127.148C108.771 127.755 107.799 129.246 106.503 128.058Z" fill="#F0EAFF"/>
</g>
<defs>
<clipPath id="clip0_2031_377">
<rect width="390" height="635" fill="white"/>
</clipPath>
</defs>
</svg>
